<svg display="none"
xmlns="http://www.w3.org/2000/svg">
    <symbol id="contacts_icon" viewBox="0 0 512 512">
    <g><path d="m467 120.667c4.143 0 7.5-3.358 7.5-7.5v-75.667c0-4.142-3.357-7.5-7.5-7.5h-52.5v-22.5c0-4.142-3.357-7.5-7.5-7.5h-317c-28.948 0-52.5 23.551-52.5 52.5v407c0 28.949 23.552 52.5 52.5 52.5h317c4.143 0 7.5-3.358 7.5-7.5v-30c0-1.989-.79-3.897-2.196-5.303-5.348-5.347-5.348-14.047 0-19.394 1.406-1.406 2.196-3.314 2.196-5.303v-112.5h52.5c4.143 0 7.5-3.358 7.5-7.5v-75.667c0-4.142-3.357-7.5-7.5-7.5h-52.5v-15h52.5c4.143 0 7.5-3.358 7.5-7.5v-75.667c0-4.142-3.357-7.5-7.5-7.5h-52.5v-15h52.5zm-7.5-75.667v60.667h-45v-60.667zm-407 7.5c0-20.678 16.822-37.5 37.5-37.5h309.5v392h-309.5c-14.676 0-27.964 6.052-37.5 15.793zm37.5 444.5c-20.678 0-37.5-16.822-37.5-37.5s16.822-37.5 37.5-37.5h309.5v15h-309.5c-12.406 0-22.5 10.093-22.5 22.5s10.094 22.5 22.5 22.5h309.5v15zm22.5-37.5c0-4.136 3.364-7.5 7.5-7.5h274.283c-.65 2.416-.996 4.931-.996 7.5s.346 5.084.996 7.5h-274.283c-4.136 0-7.5-3.364-7.5-7.5zm-13.71 7.5h-8.79c-4.136 0-7.5-3.364-7.5-7.5s3.364-7.5 7.5-7.5h8.79c-.833 2.347-1.29 4.871-1.29 7.5s.458 5.153 1.29 7.5zm360.71-210.667v60.667h-45v-60.667zm0-105.666v60.667h-45v-60.667z"/><path d="m105 332h242c4.143 0 7.5-3.358 7.5-7.5v-257c0-4.142-3.357-7.5-7.5-7.5h-242c-4.143 0-7.5 3.358-7.5 7.5v197c0 4.142 3.357 7.5 7.5 7.5s7.5-3.358 7.5-7.5v-189.5h227v212h-234.5c-4.143 0-7.5 3.358-7.5 7.5v30c0 4.142 3.357 7.5 7.5 7.5zm7.5-30h227v15h-227z"/><path d="m226 197c29.5 0 53.5-24 53.5-53.5s-24-53.5-53.5-53.5-53.5 24-53.5 53.5 24 53.5 53.5 53.5zm0-92c21.229 0 38.5 17.271 38.5 38.5s-17.271 38.5-38.5 38.5-38.5-17.271-38.5-38.5 17.271-38.5 38.5-38.5z"/><path d="m127.5 264.5c0 4.142 3.357 7.5 7.5 7.5h182c4.143 0 7.5-3.358 7.5-7.5 0-28.949-23.552-52.5-52.5-52.5h-92c-28.948 0-52.5 23.551-52.5 52.5zm52.5-37.5h92c18.109 0 33.262 12.905 36.747 30h-165.494c3.485-17.095 18.638-30 36.747-30z"/></g>
    </symbol>
    <symbol id="qr_code_icon" viewBox="0 0 496 496">
    	<g>
    		<path d="M416,80H80v128H0v16h80v192h336V224h80v-16h-80V80z M192,128h32v16h-32V128z M96,96h80v80H96V96z M176,400H96v-80h80V400
    			z M128,304v-16h16v16H128z M400,400H192v-96h-32v-32h-48v32H96v-80h16v32h48v-32h32v32h80v-32h32v96h80v-48h-32v-16h32v-32h16
    			V400z M128,240v-16h16v16H128z M256,224v16h-48v-16h32H256z M240,208v-16h16v16H240z M368,288v16h-48v-80h48v16h-32v48H368z
    			 M400,208h-16h-80h-32v-32h-48v32h-32h-32h-48H96v-16h96v-32h48v-48h-48V96h112v16h-32v48h32v32h96V208z M304,128v16h-16v-16H304
    			z M400,176h-80V96h80V176z"/>
    		<path d="M112,160h48v-48h-48V160z M128,128h16v16h-16V128z"/>
    		<path d="M160,336h-48v48h48V336z M144,368h-16v-16h16V368z"/>
    		<path d="M384,112h-48v48h48V112z M368,144h-16v-16h16V144z"/>
    		<path d="M208,320h32v16h-32v48h80V272h-80V320z M224,288h48v80h-48v-16h32v-48h-32V288z"/>
    		<path d="M304,384h80v-48h-80V384z M320,352h48v16h-48V352z"/>
    		<polygon points="16,16 136,16 136,0 0,0 0,136 16,136 			"/>
    		<polygon points="48,136 48,48 136,48 136,32 32,32 32,136 			"/>
    		<polygon points="48,360 32,360 32,464 136,464 136,448 48,448 			"/>
    		<polygon points="16,360 0,360 0,496 136,496 136,480 16,480 			"/>
    		<polygon points="448,136 464,136 464,32 360,32 360,48 448,48 			"/>
    		<polygon points="360,0 360,16 480,16 480,136 496,136 496,0 			"/>
    		<polygon points="480,480 360,480 360,496 496,496 496,360 480,360 			"/>
    		<polygon points="448,360 448,448 360,448 360,464 464,464 464,360 			"/>
    	</g>
    </symbol>
    <symbol id="apartments" viewBox="0 0 512 512">
        <g>
			<path d="M502.467,493.933h-34.661c0.364-2.804,0.528-5.667,0.528-8.533c0-24.086-13.861-44.588-34.133-54.082V144.067
				c0-5.12-3.413-8.533-8.533-8.533h-128v-128c0-5.12-3.413-8.533-8.533-8.533h-230.4C53.613-1,50.2,2.413,50.2,7.533v486.4H7.533
				c-5.12,0-8.533,3.413-8.533,8.533S2.413,511,7.533,511h51.2h25.6h204.8H457.24h45.227c5.12,0,8.533-3.413,8.533-8.533
				S507.587,493.933,502.467,493.933z M417.133,426.269c-2.785-0.389-5.631-0.603-8.533-0.603c-6.442,0-12.761,1.097-18.731,3.148
				c-1.487-1.982-3.884-3.148-6.869-3.148c-5.12,0-8.533,3.413-8.533,8.533v2.615c-3.234,2.33-6.241,4.988-8.97,7.943
				c-0.431,0.456-0.855,0.918-1.27,1.388c-7.071-8.839-16.179-15.233-26.477-18.346c-1.479-1.357-3.518-2.134-5.95-2.134
				c-0.951,0-1.843,0.119-2.666,0.344c-1.927-0.225-3.884-0.344-5.867-0.344c-5.348,0-11.37,0.694-16.249,2.675
				c-0.604,0.204-1.204,0.414-1.798,0.639c-5.897-4.794-12.794-8.245-20.062-10.144c-0.077-0.021-0.156-0.036-0.232-0.057
				c-0.634-0.163-1.27-0.318-1.909-0.457c-0.518-0.114-1.042-0.213-1.565-0.311c-0.227-0.042-0.454-0.087-0.682-0.126
				c-0.549-0.095-1.1-0.179-1.655-0.256c-0.248-0.035-0.496-0.066-0.745-0.097c-0.509-0.063-1.02-0.122-1.534-0.169
				c-0.375-0.035-0.751-0.061-1.127-0.088c-0.402-0.028-0.803-0.061-1.208-0.08c-0.811-0.039-1.622-0.063-2.434-0.063
				c-0.628,0-1.251,0.013-1.871,0.036c-0.406,0.014-0.811,0.039-1.216,0.062c-0.162,0.01-0.326,0.017-0.488,0.028
				c-7.774,0.516-15.412,2.71-22.026,6.596V152.6h42.667h128V426.269z M67.267,16.067H280.6v119.467h-42.667
				c-5.12,0-8.533,3.413-8.533,8.533v265.387c-4.361-4.361-9.388-8.05-14.861-10.937c-0.483-0.258-0.971-0.508-1.461-0.752
				c-0.193-0.095-0.384-0.194-0.578-0.287c-6.09-2.954-12.717-4.892-19.642-5.617c-0.097-0.01-0.195-0.018-0.293-0.028
				c-0.804-0.08-1.612-0.143-2.424-0.19c-0.215-0.013-0.43-0.026-0.646-0.037c-0.917-0.043-1.837-0.072-2.762-0.072
				c-12.7,0-24.466,4.177-34.133,11.197v-2.663c0-5.12-3.413-8.533-8.533-8.533c-5.12,0-8.533,3.413-8.533,8.533v17.067
				c0,1.28,0.213,2.453,0.613,3.493c-4.19,6.905-7.077,14.689-8.293,22.961c-9.824,1.123-18.807,4.658-26.453,9.943v-2.263
				c0-5.12-3.413-8.533-8.533-8.533c-5.12,0-8.533,3.413-8.533,8.533v17.067c0,0.996,0.133,1.925,0.379,2.779
				c-4.231,6.843-7.11,14.586-8.296,22.82h-9.149V16.067z M131.65,459.977c0.169-0.015,0.34-0.025,0.51-0.038
				c0.45-0.035,0.9-0.069,1.354-0.09c0.669-0.03,1.342-0.05,2.02-0.05c5.12,0,8.533-3.413,8.533-8.533
				c0-23.893,18.773-42.667,42.667-42.667c21.333,0,39.253,15.36,41.813,36.693c0.577,2.308,1.947,4.21,3.821,5.474
				c0.118,0.083,0.239,0.161,0.362,0.238c0.132,0.081,0.263,0.163,0.4,0.237c0.315,0.174,0.643,0.333,0.985,0.47
				c0.013,0.005,0.025,0.01,0.038,0.016c0.391,0.156,0.799,0.287,1.22,0.392c0.001,0,0.001,0,0.002,0.001
				c0.508,0.169,1.085,0.234,1.695,0.215c2.805,0.041,5.414-1.493,6.837-3.626c0-0.001,0.001-0.001,0.002-0.002c0,0,0,0,0,0
				l0.853-0.853c6.827-8.533,16.213-13.653,27.307-13.653c5.762,0,11.521,1.614,16.69,4.632
				c-10.179,9.571-15.951,22.048-16.622,35.398c-0.045,0.873-0.068,1.753-0.068,2.637c0,5.934,0.987,11.621,2.94,17.067H93.72
				C97.714,475.562,112.924,461.678,131.65,459.977z M295.154,493.933c-3.26-5.514-5.167-12.033-5.167-17.92
				c0-9.436,3.72-17.937,10.114-24.151c1.222-1.133,2.525-2.179,3.901-3.126c1.333,0.01,2.674-0.268,3.905-0.883
				c18.773-10.24,40.96-0.853,47.787,17.92c0.853,2.56,3.413,5.12,7.68,5.12c0.81,0,1.706-0.258,2.606-0.716
				c2.141-0.351,3.834-1.923,5.074-4.404c3.307-7.027,8.427-12.637,14.659-16.57c1.345-0.375,2.5-1.039,3.419-1.94
				c5.861-2.946,12.505-4.53,19.469-4.53c23.893,0,42.667,18.773,42.667,42.667c0,2.56,0,5.973-0.853,8.533H295.154z"/>
			<path d="M280.6,220.867c-5.12,0-8.533,3.413-8.533,8.533v17.067c0,5.12,3.413,8.533,8.533,8.533s8.533-3.413,8.533-8.533V229.4
				C289.133,224.28,285.72,220.867,280.6,220.867z"/>
			<path d="M280.6,374.467c-5.12,0-8.533,3.413-8.533,8.533v17.067c0,5.12,3.413,8.533,8.533,8.533s8.533-3.413,8.533-8.533V383
				C289.133,377.88,285.72,374.467,280.6,374.467z"/>
			<path d="M280.6,272.067c-5.12,0-8.533,3.413-8.533,8.533v17.067c0,5.12,3.413,8.533,8.533,8.533s8.533-3.413,8.533-8.533V280.6
				C289.133,275.48,285.72,272.067,280.6,272.067z"/>
			<path d="M280.6,323.267c-5.12,0-8.533,3.413-8.533,8.533v17.067c0,5.12,3.413,8.533,8.533,8.533s8.533-3.413,8.533-8.533V331.8
				C289.133,326.68,285.72,323.267,280.6,323.267z"/>
			<path d="M280.6,169.667c-5.12,0-8.533,3.413-8.533,8.533v17.067c0,5.12,3.413,8.533,8.533,8.533s8.533-3.413,8.533-8.533V178.2
				C289.133,173.08,285.72,169.667,280.6,169.667z"/>
			<path d="M331.8,255c5.12,0,8.533-3.413,8.533-8.533V229.4c0-5.12-3.413-8.533-8.533-8.533c-5.12,0-8.533,3.413-8.533,8.533
				v17.067C323.267,251.587,326.68,255,331.8,255z"/>
			<path d="M331.8,203.8c5.12,0,8.533-3.413,8.533-8.533V178.2c0-5.12-3.413-8.533-8.533-8.533c-5.12,0-8.533,3.413-8.533,8.533
				v17.067C323.267,200.387,326.68,203.8,331.8,203.8z"/>
			<path d="M331.8,306.2c5.12,0,8.533-3.413,8.533-8.533V280.6c0-5.12-3.413-8.533-8.533-8.533c-5.12,0-8.533,3.413-8.533,8.533
				v17.067C323.267,302.787,326.68,306.2,331.8,306.2z"/>
			<path d="M331.8,357.4c5.12,0,8.533-3.413,8.533-8.533V331.8c0-5.12-3.413-8.533-8.533-8.533c-5.12,0-8.533,3.413-8.533,8.533
				v17.067C323.267,353.987,326.68,357.4,331.8,357.4z"/>
			<path d="M331.8,408.6c5.12,0,8.533-3.413,8.533-8.533V383c0-5.12-3.413-8.533-8.533-8.533c-5.12,0-8.533,3.413-8.533,8.533
				v17.067C323.267,405.187,326.68,408.6,331.8,408.6z"/>
			<path d="M383,306.2c5.12,0,8.533-3.413,8.533-8.533V280.6c0-5.12-3.413-8.533-8.533-8.533s-8.533,3.413-8.533,8.533v17.067
				C374.467,302.787,377.88,306.2,383,306.2z"/>
			<path d="M383,255c5.12,0,8.533-3.413,8.533-8.533V229.4c0-5.12-3.413-8.533-8.533-8.533s-8.533,3.413-8.533,8.533v17.067
				C374.467,251.587,377.88,255,383,255z"/>
			<path d="M383,408.6c5.12,0,8.533-3.413,8.533-8.533V383c0-5.12-3.413-8.533-8.533-8.533s-8.533,3.413-8.533,8.533v17.067
				C374.467,405.187,377.88,408.6,383,408.6z"/>
			<path d="M383,357.4c5.12,0,8.533-3.413,8.533-8.533V331.8c0-5.12-3.413-8.533-8.533-8.533s-8.533,3.413-8.533,8.533v17.067
				C374.467,353.987,377.88,357.4,383,357.4z"/>
			<path d="M383,203.8c5.12,0,8.533-3.413,8.533-8.533V178.2c0-5.12-3.413-8.533-8.533-8.533s-8.533,3.413-8.533,8.533v17.067
				C374.467,200.387,377.88,203.8,383,203.8z"/>
			<path d="M92.867,323.267c5.12,0,8.533-3.413,8.533-8.533v-17.067c0-5.12-3.413-8.533-8.533-8.533
				c-5.12,0-8.533,3.413-8.533,8.533v17.067C84.333,319.853,87.747,323.267,92.867,323.267z"/>
			<path d="M92.867,374.467c5.12,0,8.533-3.413,8.533-8.533v-17.067c0-5.12-3.413-8.533-8.533-8.533
				c-5.12,0-8.533,3.413-8.533,8.533v17.067C84.333,371.053,87.747,374.467,92.867,374.467z"/>
			<path d="M92.867,425.667c5.12,0,8.533-3.413,8.533-8.533v-17.067c0-5.12-3.413-8.533-8.533-8.533
				c-5.12,0-8.533,3.413-8.533,8.533v17.067C84.333,422.253,87.747,425.667,92.867,425.667z"/>
			<path d="M92.867,67.267c5.12,0,8.533-3.413,8.533-8.533V41.667c0-5.12-3.413-8.533-8.533-8.533c-5.12,0-8.533,3.413-8.533,8.533
				v17.067C84.333,63.853,87.747,67.267,92.867,67.267z"/>
			<path d="M92.867,118.467c5.12,0,8.533-3.413,8.533-8.533V92.867c0-5.12-3.413-8.533-8.533-8.533c-5.12,0-8.533,3.413-8.533,8.533
				v17.067C84.333,115.053,87.747,118.467,92.867,118.467z"/>
			<path d="M92.867,169.667c5.12,0,8.533-3.413,8.533-8.533v-17.067c0-5.12-3.413-8.533-8.533-8.533
				c-5.12,0-8.533,3.413-8.533,8.533v17.067C84.333,166.253,87.747,169.667,92.867,169.667z"/>
			<path d="M92.867,220.867c5.12,0,8.533-3.413,8.533-8.533v-17.067c0-5.12-3.413-8.533-8.533-8.533
				c-5.12,0-8.533,3.413-8.533,8.533v17.067C84.333,217.453,87.747,220.867,92.867,220.867z"/>
			<path d="M92.867,272.067c5.12,0,8.533-3.413,8.533-8.533v-17.067c0-5.12-3.413-8.533-8.533-8.533
				c-5.12,0-8.533,3.413-8.533,8.533v17.067C84.333,268.653,87.747,272.067,92.867,272.067z"/>
			<path d="M144.067,118.467c5.12,0,8.533-3.413,8.533-8.533V92.867c0-5.12-3.413-8.533-8.533-8.533
				c-5.12,0-8.533,3.413-8.533,8.533v17.067C135.533,115.053,138.947,118.467,144.067,118.467z"/>
			<path d="M144.067,67.267c5.12,0,8.533-3.413,8.533-8.533V41.667c0-5.12-3.413-8.533-8.533-8.533c-5.12,0-8.533,3.413-8.533,8.533
				v17.067C135.533,63.853,138.947,67.267,144.067,67.267z"/>
			<path d="M144.067,220.867c5.12,0,8.533-3.413,8.533-8.533v-17.067c0-5.12-3.413-8.533-8.533-8.533
				c-5.12,0-8.533,3.413-8.533,8.533v17.067C135.533,217.453,138.947,220.867,144.067,220.867z"/>
			<path d="M144.067,169.667c5.12,0,8.533-3.413,8.533-8.533v-17.067c0-5.12-3.413-8.533-8.533-8.533
				c-5.12,0-8.533,3.413-8.533,8.533v17.067C135.533,166.253,138.947,169.667,144.067,169.667z"/>
			<path d="M144.067,272.067c5.12,0,8.533-3.413,8.533-8.533v-17.067c0-5.12-3.413-8.533-8.533-8.533
				c-5.12,0-8.533,3.413-8.533,8.533v17.067C135.533,268.653,138.947,272.067,144.067,272.067z"/>
			<path d="M144.067,323.267c5.12,0,8.533-3.413,8.533-8.533v-17.067c0-5.12-3.413-8.533-8.533-8.533
				c-5.12,0-8.533,3.413-8.533,8.533v17.067C135.533,319.853,138.947,323.267,144.067,323.267z"/>
			<path d="M144.067,374.467c5.12,0,8.533-3.413,8.533-8.533v-17.067c0-5.12-3.413-8.533-8.533-8.533
				c-5.12,0-8.533,3.413-8.533,8.533v17.067C135.533,371.053,138.947,374.467,144.067,374.467z"/>
			<path d="M195.267,169.667c5.12,0,8.533-3.413,8.533-8.533v-17.067c0-5.12-3.413-8.533-8.533-8.533s-8.533,3.413-8.533,8.533
				v17.067C186.733,166.253,190.147,169.667,195.267,169.667z"/>
			<path d="M195.267,118.467c5.12,0,8.533-3.413,8.533-8.533V92.867c0-5.12-3.413-8.533-8.533-8.533s-8.533,3.413-8.533,8.533
				v17.067C186.733,115.053,190.147,118.467,195.267,118.467z"/>
			<path d="M195.267,67.267c5.12,0,8.533-3.413,8.533-8.533V41.667c0-5.12-3.413-8.533-8.533-8.533s-8.533,3.413-8.533,8.533v17.067
				C186.733,63.853,190.147,67.267,195.267,67.267z"/>
			<path d="M195.267,374.467c5.12,0,8.533-3.413,8.533-8.533v-17.067c0-5.12-3.413-8.533-8.533-8.533s-8.533,3.413-8.533,8.533
				v17.067C186.733,371.053,190.147,374.467,195.267,374.467z"/>
			<path d="M195.267,323.267c5.12,0,8.533-3.413,8.533-8.533v-17.067c0-5.12-3.413-8.533-8.533-8.533s-8.533,3.413-8.533,8.533
				v17.067C186.733,319.853,190.147,323.267,195.267,323.267z"/>
			<path d="M195.267,272.067c5.12,0,8.533-3.413,8.533-8.533v-17.067c0-5.12-3.413-8.533-8.533-8.533s-8.533,3.413-8.533,8.533
				v17.067C186.733,268.653,190.147,272.067,195.267,272.067z"/>
			<path d="M195.267,220.867c5.12,0,8.533-3.413,8.533-8.533v-17.067c0-5.12-3.413-8.533-8.533-8.533s-8.533,3.413-8.533,8.533
				v17.067C186.733,217.453,190.147,220.867,195.267,220.867z"/>
			<path d="M246.467,118.467c5.12,0,8.533-3.413,8.533-8.533V92.867c0-5.12-3.413-8.533-8.533-8.533s-8.533,3.413-8.533,8.533
				v17.067C237.933,115.053,241.347,118.467,246.467,118.467z"/>
			<path d="M246.467,67.267c5.12,0,8.533-3.413,8.533-8.533V41.667c0-5.12-3.413-8.533-8.533-8.533s-8.533,3.413-8.533,8.533v17.067
				C237.933,63.853,241.347,67.267,246.467,67.267z"/>
		</g>
    </symbol>
	<symbol id="call" viewBox="0 0 241.73 241.73">
		<g>
			<path d="M234.771,181.213l-34.938-34.953c-4.692-4.668-10.975-7.24-17.689-7.24
				c-6.987,0-13.584,2.751-18.572,7.742l-13.6,13.597c-10.568-5.874-24.614-13.953-39.197-28.536
				c-14.566-14.571-22.646-28.576-28.55-39.201l13.613-13.603c10.121-10.142,10.328-26.413,0.463-36.269L61.37,7.818
				c-4.679-4.692-10.962-7.276-17.693-7.276c-6.831,0-13.293,2.63-18.252,7.417c-3,2.416-18.055,15.706-23.666,43.114
				c-7.856,38.363,10.194,75.274,62.302,127.403c58.209,58.191,107.902,62.714,121.746,62.714c2.882,0,4.621-0.178,5.085-0.232
				c27.147-3.182,36.867-15.238,43.964-24.041C244.052,205.508,244.02,190.496,234.771,181.213z M223.178,207.502
				c-6.671,8.274-12.971,16.088-34.031,18.557c-0.011,0.001-1.163,0.13-3.34,0.13c-12.386,0-57.008-4.206-111.139-58.32
				C26.615,119.796,9.749,86.829,16.454,54.081c4.894-23.906,17.887-34.067,18.392-34.453l0.448-0.331l0.393-0.394
				c2.169-2.167,5.006-3.361,7.989-3.361c2.716,0,5.228,1.018,7.08,2.876l34.939,34.94c4.02,4.016,3.806,10.774-0.471,15.06
				L69.829,83.8l-0.253,0.265c-4.012,4.419-3.54,10.391-1.33,14.28c6.377,11.508,15.112,27.269,31.92,44.082
				c16.752,16.752,32.49,25.48,43.966,31.845c1.149,0.645,3.521,1.727,6.49,1.727c3.506,0,6.725-1.484,9.108-4.189l14.448-14.444
				c2.157-2.158,4.985-3.347,7.964-3.347c2.722,0,5.247,1.021,7.095,2.859l34.915,34.93
				C228.587,196.259,226.756,203.064,223.178,207.502z"/>
			<path d="M146.447,37.293c12.887,1.483,28.061,9.289,38.657,19.886c10.695,10.695,18.52,26.023,19.933,39.05
				c0.417,3.843,3.667,6.691,7.447,6.691c0.27,0,0.544-0.015,0.818-0.044c4.118-0.447,7.094-4.147,6.647-8.265
				c-1.787-16.467-11.075-34.874-24.238-48.038c-13.04-13.041-31.259-22.306-47.549-24.181c-4.113-0.477-7.834,2.479-8.308,6.593
				C139.38,33.099,142.331,36.819,146.447,37.293z"/>
			<path d="M139.44,68.711c6.97,0.803,16.616,5.973,22.935,12.292c6.373,6.374,11.553,16.112,12.316,23.157
				c0.417,3.844,3.667,6.692,7.447,6.692c0.27,0,0.543-0.015,0.817-0.044c4.118-0.447,7.095-4.147,6.648-8.265
				c-1.304-12.028-9.289-24.813-16.623-32.147c-7.268-7.269-19.928-15.216-31.825-16.587c-4.119-0.479-7.835,2.478-8.309,6.592
				C132.373,64.516,135.325,68.237,139.44,68.711z"/>
		</g>
	</symbol>
	<symbol id="whatsap" viewBox="0 0 24 24">
		<g>
			<path d="m17.507 14.307-.009.075c-2.199-1.096-2.429-1.242-2.713-.816-.197.295-.771.964-.944 1.162-.175.195-.349.21-.646.075-.3-.15-1.263-.465-2.403-1.485-.888-.795-1.484-1.77-1.66-2.07-.293-.506.32-.578.878-1.634.1-.21.049-.375-.025-.524-.075-.15-.672-1.62-.922-2.206-.24-.584-.487-.51-.672-.51-.576-.05-.997-.042-1.368.344-1.614 1.774-1.207 3.604.174 5.55 2.714 3.552 4.16 4.206 6.804 5.114.714.227 1.365.195 1.88.121.574-.091 1.767-.721 2.016-1.426.255-.705.255-1.29.18-1.425-.074-.135-.27-.21-.57-.345z"/><path d="m20.52 3.449c-7.689-7.433-20.414-2.042-20.419 8.444 0 2.096.549 4.14 1.595 5.945l-1.696 6.162 6.335-1.652c7.905 4.27 17.661-1.4 17.665-10.449 0-3.176-1.24-6.165-3.495-8.411zm1.482 8.417c-.006 7.633-8.385 12.4-15.012 8.504l-.36-.214-3.75.975 1.005-3.645-.239-.375c-4.124-6.565.614-15.145 8.426-15.145 2.654 0 5.145 1.035 7.021 2.91 1.875 1.859 2.909 4.35 2.909 6.99z"/>
		</g>
	</symbol>
	<symbol id="telegram" viewBox="0 -39 512.00011 512">
		<g>
			<path d="m504.09375 11.859375c-6.253906-7.648437-15.621094-11.859375-26.378906-11.859375-5.847656 0-12.042969 1.230469-18.410156 3.664062l-433.398438 165.441407c-23 8.777343-26.097656 21.949219-25.8984375 29.019531s4.0390625 20.046875 27.4999995 27.511719c.140626.042969.28125.085937.421876.125l89.898437 25.726562 48.617187 139.023438c6.628907 18.953125 21.507813 30.726562 38.835938 30.726562 10.925781 0 21.671875-4.578125 31.078125-13.234375l55.605469-51.199218 80.652344 64.941406c.007812.007812.019531.011718.027343.019531l.765625.617187c.070313.054688.144532.113282.214844.167969 8.964844 6.953125 18.75 10.625 28.308594 10.628907h.003906c18.675781 0 33.546875-13.824219 37.878906-35.214844l71.011719-350.640625c2.851563-14.074219.460937-26.667969-6.734375-35.464844zm-356.191406 234.742187 173.441406-88.605468-107.996094 114.753906c-1.769531 1.878906-3.023437 4.179688-3.640625 6.683594l-20.824219 84.351562zm68.132812 139.332032c-.71875.660156-1.441406 1.25-2.164062 1.792968l19.320312-78.25 35.144532 28.300782zm265.390625-344.566406-71.011719 350.644531c-.683593 3.355469-2.867187 11.164062-8.480468 11.164062-2.773438 0-6.257813-1.511719-9.824219-4.257812l-91.390625-73.585938c-.011719-.011719-.027344-.023437-.042969-.03125l-54.378906-43.789062 156.175781-165.949219c5-5.3125 5.453125-13.449219 1.074219-19.285156-4.382813-5.835938-12.324219-7.671875-18.820313-4.351563l-256.867187 131.226563-91.121094-26.070313 433.265625-165.390625c3.660156-1.398437 6.214844-1.691406 7.710938-1.691406.917968 0 2.550781.109375 3.15625.855469.796875.972656 1.8125 4.289062.554687 10.511719zm0 0"/></svg>
		</g>
	</symbol>
</svg>
